<?xml version="1.0" encoding="utf-8"?>
<!-- Generator: Adobe Illustrator 24.3.0, SVG Export Plug-In . SVG Version: 6.00 Build 0)  -->
<svg version="1.1" id="Layer_1" xmlns="http://www.w3.org/2000/svg" xmlns:xlink="http://www.w3.org/1999/xlink" x="0px" y="0px"
	 viewBox="0 0 180 180" enable-background="new 0 0 180 180" xml:space="preserve">
<g>
	<g id="XMLID_48_">
		<path fill="#F2F2F2" d="M89.999,25.378C54.31,25.378,25.378,54.31,25.378,90c0,35.69,28.932,64.622,64.621,64.622
			c35.69,0,64.623-28.932,64.623-64.622C154.622,54.31,125.689,25.378,89.999,25.378z"/>
	</g>
	<g>
		<g>
			<path fill="#CCCBC9" d="M107.998,127.045H93.983c-1.269,0-2.307,1.038-2.307,2.307c0,1.27,1.038,2.308,2.307,2.308h14.015
				c1.269,0,2.308-1.038,2.308-2.308C110.306,128.083,109.267,127.045,107.998,127.045z"/>
		</g>
		<g>
			<path fill="#CCCBC9" d="M104.864,136.018H82.825c-1.27,0-2.307,1.039-2.307,2.308c0,1.268,1.037,2.308,2.307,2.308h22.039
				c1.269,0,2.307-1.039,2.307-2.308C107.171,137.057,106.133,136.018,104.864,136.018z"/>
		</g>
		<g>
			<path fill="#CCCBC9" d="M113.536,136.018h-3.393c-1.27,0-2.308,1.039-2.308,2.308c0,1.268,1.038,2.308,2.308,2.308h3.393
				c1.27,0,2.308-1.039,2.308-2.308C115.844,137.057,114.806,136.018,113.536,136.018z"/>
		</g>
		<g>
			<path fill="#CCCBC9" d="M105.503,131.533H94.34c1.125,0,2.045,0.921,2.045,2.045v0.525c0,1.124-0.92,2.045-2.045,2.045h11.163
				c-1.125,0-2.045-0.921-2.045-2.045v-0.525C103.458,132.454,104.378,131.533,105.503,131.533z"/>
		</g>
	</g>
	<g>
		<g>
			<path fill="#CCCBC9" d="M90.335,36.612H76.321c-1.27,0-2.308,1.039-2.308,2.308c0,1.27,1.038,2.307,2.308,2.307h14.014
				c1.27,0,2.307-1.037,2.307-2.307C92.642,37.651,91.605,36.612,90.335,36.612z"/>
		</g>
		<g>
			<path fill="#CCCBC9" d="M87.2,45.586H65.163c-1.27,0-2.309,1.038-2.309,2.307c0,1.27,1.039,2.309,2.309,2.309H87.2
				c1.27,0,2.309-1.039,2.309-2.309C89.509,46.624,88.47,45.586,87.2,45.586z"/>
		</g>
		<g>
			<path fill="#CCCBC9" d="M95.874,45.586H92.48c-1.27,0-2.308,1.038-2.308,2.307c0,1.27,1.038,2.309,2.308,2.309h3.394
				c1.269,0,2.307-1.039,2.307-2.309C98.181,46.624,97.143,45.586,95.874,45.586z"/>
		</g>
		<g>
			<path fill="#CCCBC9" d="M87.84,41.102H76.677c1.125,0,2.045,0.92,2.045,2.045v0.525c0,1.124-0.92,2.046-2.045,2.046H87.84
				c-1.124,0-2.045-0.922-2.045-2.046v-0.525C85.795,42.021,86.716,41.102,87.84,41.102z"/>
		</g>
	</g>
	<g>
		<g>
			<path fill="#CCCBC9" d="M60.103,91.201H41.735c-1.27,0-2.308,1.039-2.308,2.309v1.078c0,1.269,1.038,2.307,2.308,2.307h18.367
				c1.269,0,2.307-1.038,2.307-2.307V93.51C62.409,92.24,61.371,91.201,60.103,91.201z"/>
		</g>
		<g>
			<path fill="#CCCBC9" d="M66.909,102.272H38.644c-1.27,0-2.309,1.038-2.309,2.307v1.078c0,1.27,1.039,2.308,2.309,2.308h28.266
				c1.27,0,2.308-1.038,2.308-2.308v-1.078C69.217,103.311,68.179,102.272,66.909,102.272z"/>
		</g>
		<g>
			<path fill="#CCCBC9" d="M77.608,102.272h-5.265c-1.269,0-2.308,1.038-2.308,2.307v1.078c0,1.27,1.039,2.308,2.308,2.308h5.265
				c1.27,0,2.308-1.038,2.308-2.308v-1.078C79.916,103.311,78.878,102.272,77.608,102.272z"/>
		</g>
		<g>
			<path fill="#CCCBC9" d="M56.485,96.74H42.714c1.387,0,2.521,1.134,2.521,2.521v0.648c0,1.387-1.135,2.522-2.521,2.522h13.771
				c-1.388,0-2.522-1.136-2.522-2.522v-0.648C53.963,97.874,55.098,96.74,56.485,96.74z"/>
		</g>
	</g>
	<g>
		<g>
			<path fill="#CCCBC9" d="M132.324,101.084h-9.806c-0.888,0-1.615,0.727-1.615,1.615c0,0.889,0.728,1.614,1.615,1.614h9.806
				c0.888,0,1.614-0.726,1.614-1.614C133.939,101.811,133.212,101.084,132.324,101.084z"/>
		</g>
		<g>
			<path fill="#CCCBC9" d="M130.417,107.364h-15.422c-0.887,0-1.613,0.726-1.613,1.613c0,0.888,0.727,1.615,1.613,1.615h15.422
				c0.887,0,1.613-0.728,1.613-1.615C132.03,108.09,131.304,107.364,130.417,107.364z"/>
		</g>
		<g>
			<path fill="#CCCBC9" d="M136.485,107.364h-2.375c-0.889,0-1.614,0.726-1.614,1.613c0,0.888,0.726,1.615,1.614,1.615h2.375
				c0.887,0,1.613-0.728,1.613-1.615C138.099,108.09,137.372,107.364,136.485,107.364z"/>
		</g>
		<g>
			<path fill="#CCCBC9" d="M130.579,104.225h-7.812c0.787,0,1.431,0.645,1.431,1.432v0.368c0,0.786-0.644,1.43-1.431,1.43h7.812
				c-0.787,0-1.432-0.644-1.432-1.43v-0.368C129.147,104.869,129.792,104.225,130.579,104.225z"/>
		</g>
	</g>
	<g>
		<g>
			<path fill="#CCCBC9" d="M134.924,59.844h-17.339c-0.889,0-1.615,0.727-1.615,1.613v1.867c0,0.888,0.727,1.614,1.615,1.614h17.339
				c0.888,0,1.614-0.727,1.614-1.614v-1.867C136.538,60.57,135.812,59.844,134.924,59.844z"/>
		</g>
		<g>
			<path fill="#CCCBC9" d="M131.913,69.751h-26.199c-0.889,0-1.615,0.727-1.615,1.614v1.866c0,0.889,0.727,1.615,1.615,1.615h26.199
				c0.887,0,1.614-0.727,1.614-1.615v-1.866C133.527,70.478,132.8,69.751,131.913,69.751z"/>
		</g>
		<g>
			<path fill="#CCCBC9" d="M141.489,69.751h-5.613c-0.889,0-1.615,0.727-1.615,1.614v1.866c0,0.889,0.727,1.615,1.615,1.615h5.613
				c0.887,0,1.614-0.727,1.614-1.615v-1.866C143.104,70.478,142.376,69.751,141.489,69.751z"/>
		</g>
		<g>
			<path fill="#CCCBC9" d="M131.235,64.8H118.91c1.242,0,2.258,1.016,2.258,2.257v0.581c0,1.241-1.016,2.257-2.258,2.257h12.325
				c-1.241,0-2.258-1.016-2.258-2.257v-0.581C128.978,65.815,129.994,64.8,131.235,64.8z"/>
		</g>
	</g>
	<g>
		<g>
			<path fill="#333333" d="M110.622,94.351c-1.281,1.266-2.603,2.487-3.963,3.663h-0.002c0.207,0.514,0.324,1.073,0.324,1.66
				c0,2.443-1.981,4.425-4.426,4.425c-0.98,0-1.883-0.321-2.617-0.863c-0.002,0.002-0.002,0.004-0.004,0.004
				c-3.152,2.197-6.473,4.183-9.953,5.954c1.648,0.713,3.333,1.384,5.055,2.011c5.24,1.907,10.318,3.196,14.911,4.064
				c0.657-4.627,1.073-9.851,0.955-15.427C110.862,97.991,110.769,96.159,110.622,94.351z"/>
		</g>
		<g>
			<path fill="#333333" d="M100.581,56.55c3.459-0.922,7.057-1.649,10.768-2.177c-4.873-2.927-10.393-4.881-16.297-5.597
				C97.058,51.294,98.901,53.887,100.581,56.55z"/>
		</g>
		<g>
			<path fill="#333333" d="M114.491,56.459c-3.908,0.447-8.164,1.17-12.561,2.305c0.49,0.829,0.963,1.667,1.42,2.509
				c0,0.002,0,0.002,0.001,0.003c0.265-0.049,0.537-0.078,0.815-0.078c2.445,0,4.426,1.981,4.426,4.426
				c0,1.351-0.607,2.557-1.561,3.369c0,0,0,0.002,0,0.003c2.628,6.344,4.447,13.008,5.445,19.938
				c5.192-5.836,9.617-12.536,13.263-20.092C122.862,63.991,119.025,59.775,114.491,56.459z"/>
		</g>
		<g>
			<path fill="#333333" d="M110.314,126.23c3.439-1.933,6.575-4.341,9.318-7.135c-2.281-0.202-4.852-0.509-7.635-0.966
				C111.493,121.148,110.902,123.874,110.314,126.23z"/>
		</g>
		<g>
			<path fill="#333333" d="M112.868,92.041c0.277,2.583,0.444,5.2,0.498,7.849c0.115,5.716-0.315,11.067-0.992,15.808
				c3.525,0.578,6.699,0.91,9.357,1.095c6.111-7.23,9.797-16.58,9.797-26.791c0-6.673-1.574-12.979-4.371-18.564
				C123.229,79.188,118.455,86.075,112.868,92.041z"/>
		</g>
		<g>
			<path fill="#333333" d="M104.858,69.987c-0.227,0.037-0.455,0.061-0.691,0.061c-2.443,0-4.426-1.981-4.426-4.425
				c0-1.307,0.57-2.478,1.472-3.287l-0.003-0.004c-0.533-0.981-1.088-1.953-1.666-2.916c-7.43,2.152-15.15,5.525-22.186,10.747
				c-6.543,4.856-11.969,10.884-16.264,18.05c0,0.002,0,0.002,0,0.002c7.177,8.263,15.856,14.833,26.008,19.669
				c4.016-1.913,7.799-4.098,11.352-6.55c0,0,0.001,0,0.002-0.002c-0.208-0.512-0.324-1.07-0.324-1.658
				c0-2.444,1.98-4.426,4.424-4.426c0.988,0,1.898,0.328,2.635,0.876c0,0,0.002-0.003,0.004-0.005
				c1.777-1.537,3.484-3.154,5.121-4.853c-0.875-7.468-2.697-14.563-5.455-21.273C104.859,69.992,104.858,69.99,104.858,69.987z"/>
		</g>
		<g>
			<path fill="#333333" d="M107.401,127.631c0.738-2.707,1.526-6.071,2.17-9.929c-4.705-0.885-9.91-2.201-15.283-4.15
				c-2.462-0.893-4.857-1.879-7.186-2.959c-2.329,1.08-4.725,2.066-7.187,2.959c-7.295,2.648-14.282,4.128-20.124,4.946
				c7.57,8.023,18.305,13.031,30.207,13.031c6.203,0,12.09-1.359,17.375-3.799h0.001c1.001-0.462,1.982-0.963,2.938-1.5
				l-2.938,1.499C107.385,127.695,107.394,127.662,107.401,127.631z"/>
		</g>
		<g>
			<path fill="#333333" d="M62.238,92.991c-0.817-0.845-1.616-1.709-2.399-2.593c-0.398,0.725-0.786,1.458-1.162,2.203
				c1.174,0.795,1.945,2.14,1.945,3.665c0,2.445-1.98,4.425-4.425,4.425c-0.337,0-0.665-0.04-0.981-0.112
				c-0.001,0.001-0.001,0.003-0.001,0.003c-0.924,2.501-1.745,5.102-2.464,7.802c1.396,2.826,3.107,5.472,5.085,7.889
				c6.023-0.746,13.498-2.217,21.332-5.068c1.721-0.627,3.405-1.298,5.054-2.011C75.954,104.985,68.588,99.561,62.238,92.991z"/>
		</g>
		<g>
			<path fill="#333333" d="M51.448,74.529c-0.389,0.967-0.742,1.953-1.059,2.955L51.448,74.529z"/>
		</g>
		<g>
			<path fill="#333333" d="M48.47,90.001c0,5.224,0.965,10.224,2.727,14.828c0.562-1.87,1.176-3.692,1.84-5.465
				c0-0.002,0-0.003,0-0.003c-0.781-0.799-1.265-1.889-1.265-3.095c0-2.444,1.981-4.425,4.426-4.425
				c0.034,0,0.066,0.005,0.099,0.005c0-0.001,0-0.002,0-0.004c0.584-1.173,1.194-2.317,1.83-3.438
				c-2.814-3.383-5.395-7.025-7.736-10.92C49.144,81.435,48.47,85.639,48.47,90.001z"/>
		</g>
		<g>
			<path fill="#333333" d="M89.999,48.471c-17.467,0-32.415,10.784-38.551,26.059c2.387,4.195,5.045,8.093,7.969,11.689
				c4.392-7.126,9.893-13.152,16.488-18.043c6.432-4.771,13.925-8.455,22.275-10.948c-1.932-3-4.084-5.907-6.454-8.721
				C91.153,48.484,90.577,48.471,89.999,48.471z"/>
		</g>
	</g>
</g>
</svg>
